HIERARCHY
ROOT Hips
{
	OFFSET -0.179506 -22.333345 2.821913
	CHANNELS 6 Xposition Yposition Zposition Zrotation Yrotation Xrotation 
	JOINT LeftUpLeg
	{
		OFFSET 6.951974 -9.140623 -0.681533
		CHANNELS 3 Zrotation Yrotation Xrotation
		JOINT LeftLeg
		{
			OFFSET 3.427654 -37.519855 -0.449580
			CHANNELS 3 Zrotation Yrotation Xrotation
			JOINT LeftFoot
			{
				OFFSET -1.359570 -39.796059 -4.369333
				CHANNELS 3 Zrotation Yrotation Xrotation
				JOINT LeftToe
				{
					OFFSET 2.635814 -5.579078 11.928840
					CHANNELS 3 Zrotation Yrotation Xrotation
					End Site
					{
						OFFSET 0.000000 0.000000 0.000000
					}
				}
			}
		}
	}
	JOINT RightUpLeg
	{
		OFFSET -6.767048 -9.052170 -0.431982
		CHANNELS 3 Zrotation Yrotation Xrotation
		JOINT RightLeg
		{
			OFFSET -3.829005 -38.256897 -0.885003
			CHANNELS 3 Zrotation Yrotation Xrotation
			JOINT RightFoot
			{
				OFFSET 1.577377 -39.841461 -4.231180
				CHANNELS 3 Zrotation Yrotation Xrotation
				JOINT RightToe
				{
					OFFSET -2.537174 -4.814398 12.334795
					CHANNELS 3 Zrotation Yrotation Xrotation
					End Site
					{
						OFFSET 0.000000 0.000000 0.000000
					}
				}
			}
		}
	}
	JOINT Spine
	{
		OFFSET -0.253288 10.896323 -2.669631
		CHANNELS 3 Zrotation Yrotation Xrotation
		JOINT Spine1
		{
			OFFSET 0.548704 13.518043 0.109247
			CHANNELS 3 Zrotation Yrotation Xrotation
			JOINT Spine2
			{
				OFFSET 0.145701 5.292222 2.542457
				CHANNELS 3 Zrotation Yrotation Xrotation
				JOINT Neck
				{
					OFFSET -0.277840 21.387037 -4.285703
					CHANNELS 3 Zrotation Yrotation Xrotation
					JOINT Head
					{
						OFFSET 0.515184 6.496960 5.134897
						CHANNELS 3 Zrotation Yrotation Xrotation
						End Site
						{
							OFFSET 0.000000 0.000000 0.000000
						}
					}
				}
				JOINT LeftShoulder
				{
					OFFSET 7.884473 12.174932 -3.408961
					CHANNELS 3 Zrotation Yrotation Xrotation
					JOINT LeftArm
					{
						OFFSET 9.097692 3.046888 -0.886815
						CHANNELS 3 Zrotation Yrotation Xrotation
						JOINT LeftForeArm
						{
							OFFSET 25.961220 -1.277207 -2.745643
							CHANNELS 3 Zrotation Yrotation Xrotation
							JOINT LeftHand
							{
								OFFSET 24.923361 0.898606 -0.117091
								CHANNELS 3 Zrotation Yrotation Xrotation
								End Site
								{
									OFFSET 0.000000 0.000000 0.000000
								}
							}
						}
					}
				}
				JOINT RightShoulder
				{
					OFFSET -8.175920 11.883285 -3.861528
					CHANNELS 3 Zrotation Yrotation Xrotation
					JOINT RightArm
					{
						OFFSET -9.601238 3.255117 -0.914307
						CHANNELS 3 Zrotation Yrotation Xrotation
						JOINT RightForeArm
						{
							OFFSET -25.374195 -1.332924 -2.140099
							CHANNELS 3 Zrotation Yrotation Xrotation
							JOINT RightHand
							{
								OFFSET -25.529810 0.777228 -0.555919
								CHANNELS 3 Zrotation Yrotation Xrotation
								End Site
								{
									OFFSET 0.000000 0.000000 0.000000
								}
							}
						}
					}
				}
			}
		}
	}
}
MOTION
Frames: 16
Frame Time: 0.033333
-96.981773 25.294569 92.615639 -113.034627 4.743737 80.655515 18.713290 8.585783 -2.395982 -2.136656 6.288592 34.952527 -3.096068 9.335497 -26.237340 nan nan nan -11.367142 -3.416001 -10.189525 3.309198 0.305154 20.962295 6.405759 4.553685 -10.738685 nan nan nan -5.168560 2.964416 8.919643 9.172476 -5.311088 10.943233 4.037343 0.589073 -4.246241 2.653065 -18.793661 16.208556 12.533144 -29.790598 0.632592 -10.125589 -19.577390 0.277444 -74.394822 -54.045944 41.664060 92.736460 -76.146186 -76.293325 7.487392 -38.680479 -31.126564 12.874453 10.343526 -3.836998 29.978348 6.789747 -12.418450 -84.593409 45.850607 -77.006536 3.693074 22.592366 -18.701702 
-96.992310 25.299746 92.596268 -112.973532 4.708924 80.700572 18.666890 8.512932 -2.467539 -2.131357 6.305204 34.969400 -3.116029 9.326472 -26.269041 nan nan nan -11.402946 -3.364736 -10.272342 3.258329 0.147562 21.077911 6.418014 4.546801 -10.802691 nan nan nan -5.183385 2.922945 8.850055 9.191840 -5.344321 11.169011 3.998194 0.569839 -4.399143 2.761452 -18.722135 16.138515 12.464470 -29.817368 0.484981 -10.120302 -19.455124 0.161909 -74.360651 -54.000715 41.654060 92.407835 -76.155839 -75.964389 6.922983 -39.089833 -30.993216 12.836372 10.343001 -3.800535 30.097967 7.034273 -12.369723 -84.547964 45.751257 -76.767766 3.991924 22.801579 -18.528319 
-97.008034 25.302042 92.571884 -112.900300 4.712263 80.698577 18.663739 8.502582 -2.501024 -2.115357 6.272195 35.003373 -3.108356 9.323807 -26.338293 nan nan nan -11.428136 -3.398662 -10.274560 3.254537 0.044471 21.166438 6.376285 4.533470 -10.878424 nan nan nan -5.209761 2.980522 8.609860 9.239462 -5.425421 11.536305 4.028679 0.545849 -4.464012 2.841795 -18.638617 16.145273 12.343703 -29.907994 0.401683 -10.166117 -19.710300 0.166825 -73.921790 -53.969561 41.276714 92.126114 -76.073796 -75.902801 6.777971 -39.095712 -30.803431 12.813816 10.628526 -3.716833 30.020374 6.912142 -12.497756 -84.508340 45.618163 -76.649218 3.913607 22.856768 -18.039649 
-97.017296 25.304779 92.531242 -112.856259 4.710713 80.775870 18.645026 8.480072 -2.634212 -2.061833 6.298768 35.064953 -3.103886 9.285064 -26.338284 nan nan nan -11.450577 -3.405256 -10.360193 3.245753 -0.026564 21.212633 6.303024 4.513837 -10.925660 nan nan nan -5.210050 3.039843 8.365191 9.270475 -5.481421 11.876642 4.019487 0.518923 -4.532046 2.921794 -18.531976 15.977625 12.289978 -30.025470 0.399777 -10.135248 -19.811982 0.058272 -73.704425 -53.921107 41.103606 92.157255 -76.068985 -76.219027 6.288621 -39.125976 -30.480278 12.790690 10.738240 -3.807158 29.942196 6.879644 -12.548057 -84.421008 45.615290 -76.762282 3.933526 22.771160 -17.619325 
-97.011993 25.321363 92.517113 -112.860396 4.725106 80.864583 18.645335 8.446086 -2.770918 -2.062612 6.270934 35.149036 -3.107940 9.274172 -26.311406 nan nan nan -11.439549 -3.388149 -10.501522 3.269062 -0.059727 21.302376 6.282095 4.516658 -10.953472 nan nan nan -5.176574 3.028436 8.315838 9.261787 -5.472253 11.877756 4.003145 0.515006 -4.570969 2.836653 -18.524379 16.015442 12.339459 -30.034011 0.402548 -10.188037 -19.779329 0.076350 -73.546293 -53.818597 40.956992 92.439049 -76.151030 -76.562732 5.893929 -39.182276 -30.376792 12.839163 10.752059 -3.814120 29.914913 6.883125 -12.550234 -84.448488 45.688860 -77.019341 4.081242 22.717827 -17.830874 
-96.997734 25.344404 92.493736 -112.836028 4.765180 80.896770 18.696818 8.439422 -2.872864 -2.087945 6.189149 35.235472 -3.093987 9.305903 -26.320821 nan nan nan -11.420160 -3.426044 -10.578145 3.323120 -0.034322 21.394670 6.308579 4.528962 -10.951317 nan nan nan -5.170162 3.072273 8.442582 9.307725 -5.425023 11.741835 4.041148 0.496567 -4.540140 2.807821 -18.681357 15.895252 12.337387 -29.942805 0.313517 -10.109164 -19.765864 0.113598 -73.742812 -53.816376 41.025157 92.097538 -76.100931 -76.120530 6.597335 -38.902518 -30.836191 12.837331 10.641692 -3.866795 29.834765 6.862806 -12.532811 -84.469559 45.839334 -77.128268 3.762788 22.693962 -18.271510 
-96.985336 25.370056 92.470840 -112.812568 4.768551 80.898045 18.713311 8.458968 -2.936313 -2.088353 6.120179 35.314493 -3.079302 9.344814 -26.328800 nan nan nan -11.402626 -3.449286 -10.659708 3.335147 0.017860 21.543282 6.318159 4.472499 -11.045410 nan nan nan -5.133491 3.065319 8.455938 9.263431 -5.437358 11.628509 4.049900 0.458542 -4.404241 2.764071 -18.705329 15.859108 12.223196 -29.889676 0.401507 -10.054254 -19.895012 0.072960 -73.546705 -53.596201 40.780498 91.708097 -75.890272 -75.728617 7.784148 -38.443954 -31.668909 12.871833 10.852693 -3.826721 29.808664 6.773300 -12.595619 -84.499062 45.898174 -77.227671 3.580546 22.702694 -18.361952 
-96.984856 25.395229 92.443672 -112.810294 4.725655 80.960851 18.678872 8.415511 -3.019679 -2.089155 6.131006 35.364406 -3.052143 9.357858 -26.351167 nan nan nan -11.399880 -3.434303 -10.861915 3.303386 0.036294 21.770854 6.295474 4.369489 -11.148940 nan nan nan -5.144143 3.047225 8.581041 9.203686 -5.367443 11.332155 3.992551 0.498340 -4.301470 2.786470 -18.786297 15.649287 12.172794 -29.906706 0.789590 -10.016428 -19.803306 0.054308 -73.680042 -53.476646 40.917035 91.443477 -75.953766 -75.478074 7.731944 -38.415739 -31.925790 12.993113 10.684451 -3.910860 29.887709 6.823574 -12.580855 -84.578182 46.080350 -77.365686 4.070137 22.682430 -18.185573 
-96.994331 25.422853 92.414017 -112.826957 4.664798 80.993679 18.637964 8.413527 -3.048488 -2.089920 6.137704 35.410935 -3.049405 9.309742 -26.389836 nan nan nan -11.435064 -3.421585 -11.033698 3.251093 -0.032705 22.027760 6.316905 4.372910 -11.233121 nan nan nan -5.089919 2.948510 8.442749 9.090150 -5.379090 11.407534 3.903096 0.484040 -4.257246 2.699827 -18.473651 15.788332 12.099189 -29.984500 0.805555 -10.044852 -19.654165 -0.012918 -73.467905 -53.304701 40.676928 91.588868 -76.099975 -75.531751 6.912307 -38.678824 -31.224444 13.007019 10.815415 -3.741443 30.078451 6.900208 -12.563651 -84.747760 46.108539 -77.358121 4.307769 22.703593 -17.906861 
-97.002708 25.451805 92.383827 -112.776099 4.627456 81.001239 18.614765 8.376036 -3.093688 -2.161445 6.040886 35.473640 -3.063135 9.354793 -26.401257 nan nan nan -11.497494 -3.482553 -11.173518 3.272034 -0.067965 22.330471 6.310251 4.390493 -11.392426 nan nan nan -5.141826 2.993840 8.429762 9.080503 -5.307223 11.434391 3.911762 0.532065 -4.145594 2.715726 -18.502410 15.708076 12.202511 -29.975877 0.682730 -10.048204 -19.695379 0.043445 -73.511371 -53.443359 40.706155 90.634041 -76.042830 -74.343458 7.390810 -38.395154 -30.756106 13.061079 10.788228 -3.809296 30.168031 6.923365 -12.468180 -84.936470 45.871494 -77.152306 3.880010 22.717525 -17.886730 
-97.004707 25.506519 92.355026 -112.724925 4.588384 80.982526 18.622309 8.297998 -3.100035 -2.213410 6.009809 35.514565 -3.064520 9.345423 -26.361485 nan nan nan -11.547656 -3.483796 -11.268754 3.265635 -0.130369 22.634556 6.234642 4.439569 -11.589242 nan nan nan -5.259988 3.086739 8.391525 9.110007 -5.269359 11.842277 3.936881 0.589122 -4.458102 2.943570 -18.543601 15.662372 12.175118 -30.104572 0.610272 -9.958276 -19.799981 0.168917 -73.677237 -53.426878 41.020966 89.725559 -75.509785 -73.160272 8.442848 -37.926353 -31.152497 13.119820 11.155726 -3.771771 30.440260 6.923241 -11.662697 -85.314058 44.424653 -76.467683 3.466329 22.955640 -18.567047 
-97.015152 25.549307 92.323120 -112.586094 4.564205 80.935644 18.617043 8.215133 -3.131906 -2.278423 5.862712 35.586188 -3.129420 9.358526 -26.391273 nan nan nan -11.585890 -3.522075 -11.316345 3.261660 -0.134172 22.950378 6.177521 4.377690 -11.808691 nan nan nan -5.272014 3.114989 8.441141 9.127270 -5.295024 11.846224 3.953321 0.529350 -4.357813 2.774084 -18.524706 15.695505 12.326155 -29.961866 0.502321 -9.960413 -19.758093 0.114277 -73.641961 -53.296870 40.924845 89.374988 -75.552280 -72.962800 9.228096 -37.577169 -31.627873 13.152627 11.048030 -3.937318 30.393144 6.885039 -11.820545 -85.488034 45.061957 -76.872799 3.067554 22.945620 -18.182465 
-97.039818 25.584896 92.286568 -112.427111 4.530359 80.869320 18.615880 8.132549 -3.128125 -2.354414 5.699361 35.643733 -3.215268 9.304670 -26.428056 nan nan nan -11.661171 -3.545259 -11.338846 3.249933 -0.242738 23.291193 6.179392 4.421875 -12.026209 nan nan nan -5.203002 3.080261 8.349088 9.069904 -5.375549 11.937603 3.914086 0.397273 -4.131422 2.539970 -18.196717 15.768236 12.501922 -29.840712 0.321196 -9.973205 -19.634822 -0.110097 -73.339958 -53.113813 40.520555 89.274935 -75.826162 -73.103643 9.032631 -37.779797 -31.415542 13.202565 11.002529 -4.057614 30.311121 6.957071 -12.331548 -85.511399 46.031078 -77.489040 3.119912 23.076111 -17.147579 
-97.054382 25.627190 92.247040 -112.316560 4.522731 80.956991 18.673460 8.060355 -3.276393 -2.495161 5.579880 35.727502 -3.267390 9.230260 -26.444463 nan nan nan -11.690986 -3.487278 -11.551121 3.257068 -0.405965 23.676579 6.227936 4.535631 -12.393425 nan nan nan -5.220220 3.067376 8.467929 9.049583 -5.272586 11.642475 3.895108 0.423016 -4.109571 2.495026 -18.298988 15.779310 12.614598 -29.783667 0.392663 -9.975823 -19.463842 -0.090525 -73.540821 -53.102382 40.689830 88.630840 -76.183898 -72.256527 8.281242 -38.085210 -30.097237 13.295913 10.698542 -4.159642 30.388894 7.048185 -12.493823 -85.551011 46.427535 -77.664213 3.484883 23.322009 -16.712882 
-97.065308 25.678005 92.203209 -112.210176 4.511481 81.108851 18.710549 7.979747 -3.502303 -2.580245 5.490576 35.853626 -3.235612 9.135830 -26.436636 nan nan nan -11.721890 -3.405694 -11.870981 3.287906 -0.566692 24.162474 6.264526 4.641159 -12.907065 nan nan nan -5.299354 3.015528 8.641900 9.056187 -5.138458 11.443209 3.888532 0.535459 -4.462273 2.650990 -18.460613 15.853103 12.428318 -29.895365 0.519786 -9.913647 -19.280305 0.111186 -74.088797 -53.047552 41.333403 88.223505 -76.282774 -70.995846 7.843239 -37.935998 -28.245178 13.305418 10.677739 -4.010180 30.804292 7.071023 -11.731640 -85.974572 45.414123 -76.966183 3.435112 23.557539 -17.369376 
-97.069107 25.728184 92.176636 -111.980546 4.491385 81.163231 18.711284 7.819136 -3.664486 -2.720531 5.278314 35.963130 -3.294587 9.155603 -26.466906 nan nan nan -11.772389 -3.373809 -12.040451 3.305364 -0.697356 24.610156 6.226297 4.485358 -13.235238 nan nan nan -5.332717 2.954366 8.838881 9.065169 -5.087851 10.973788 3.894431 0.569531 -4.261731 2.343680 -18.677112 15.926863 12.539152 -29.593623 0.572749 -10.029837 -19.122253 0.196355 -74.145478 -52.988567 41.392096 88.105749 -76.560641 -70.932324 7.854995 -37.930743 -28.668218 13.416313 10.221758 -4.305543 30.833431 7.122917 -11.845446 -86.300517 46.233090 -77.494817 3.458065 23.310934 -17.166002 
